# xmcd
#
# Track frame offsets: 
#        150
#        10831
#        23593
#        26261
#        39607
#        54363
#        57188
#        71403
#        85385
#        88249
#        110530
#        134600
#
# Disc length: 1980 seconds
#
# Revision: 0
# Processed by: cddbd v1.5.2PL0 Copyright (c) Steve Scherf et al.
# Submitted via: ExactAudioCopy v1.3
#
DISCID=9607ba0c
DTITLE=The Black Sorrows - Rockin Zydeco
DYEAR=1985
DGENRE=Blues, Zydeco
TTITLE0=The Shape I'm In
TTITLE1=Corrina Corrina
TTITLE2=Sweet Way In
TTITLE3=Tomorrow Night
TTITLE4=Hey Mama
TTITLE5=Sweet Way Out
TTITLE6=Hold On To That Tiger
TTITLE7=My Negress
TTITLE8=Black Ace
TTITLE9=Just Want To Make Love To You (Live)
TTITLE10=Come In To My Kitchen (Live)
TTITLE11=Corrina Corrina (Live)
EXTD=
EXTT0=
EXTT1=
EXTT2=
EXTT3=
EXTT4=
EXTT5=
EXTT6=
EXTT7=
EXTT8=
EXTT9=
EXTT10=
EXTT11=
PLAYORDER=
